<svg id="_23-Mean_Median_Mode" data-name="23-Mean, Median, Mode" xmlns="http://www.w3.org/2000/svg" viewBox="0 0 4800 2700"><defs><style>.cls-1{fill:#4180e2;}.cls-10,.cls-14,.cls-16,.cls-17,.cls-18,.cls-19,.cls-2,.cls-21{fill:#1f398e;}.cls-3{fill:#1c1c1c;}.cls-22,.cls-4{fill:#d7e9ff;}.cls-5{fill:#1651da;}.cls-13,.cls-15,.cls-23,.cls-24,.cls-6,.cls-9{fill:#ebf2ff;}.cls-7{fill:#032747;}.cls-8{fill:#ecf3ff;}.cls-10,.cls-9{font-size:53.6px;}.cls-10,.cls-13,.cls-14,.cls-15,.cls-16,.cls-21,.cls-22,.cls-23,.cls-24,.cls-9{font-family:OpenSans-SemiBold, Open Sans;font-weight:600;}.cls-11{fill:none;stroke:#032747;stroke-miterlimit:10;stroke-width:1.01px;}.cls-12{isolation:isolate;}.cls-13{font-size:65.15px;}.cls-14{font-size:83.33px;}.cls-15{font-size:56.9px;}.cls-16{font-size:69.16px;}.cls-17{font-size:42.9px;}.cls-17,.cls-18,.cls-19{font-family:OpenSans-Bold, Open Sans;font-weight:700;}.cls-18{font-size:127.87px;}.cls-19{font-size:21.98px;}.cls-20{fill:#fff;}.cls-21{font-size:74.13px;}.cls-22{font-size:35.15px;}.cls-23{font-size:123.63px;}.cls-24{font-size:132.34px;}.cls-25{fill:#fcaf75;}.cls-26{fill:#542d04;}.cls-27{fill:#fcebd6;}.cls-28{fill:#1d1d1b;}.cls-29{fill:#f9d9a6;}.cls-30{fill:#703e03;}.cls-31{fill:#4d1e97;}.cls-32{fill:#a263c7;}.cls-33{fill:#f5a55d;}.cls-34{fill:#ffcf4d;}</style></defs><rect class="cls-1" width="4800" height="2700"/><path class="cls-2" d="M996.75,1220.13l.17-62.05c0,16.26,10.69,32.55,32.18,45l-.18,62C1007.43,1252.67,996.7,1236.39,996.75,1220.13Z"/><path class="cls-3" d="M4476.61,1026,2703.21,2056.61l-45.95,26.69-73,42.43c-43,25-112.92,25-156.19,0L1010.34,1307.22c-43.25-25-43.48-65.49-.49-90.46L2902.21,117c43-25,112.93-25,156.19,0L4476.12,935.54C4519.38,960.52,4519.61,1001,4476.61,1026Z"/><path class="cls-4" d="M2582.67,2011l-.18,62a120,120,0,0,1-19.68,9.06,158.65,158.65,0,0,1-28.47,7.2,186.62,186.62,0,0,1-61.4-.64q-7.39-1.32-14.46-3.28a127.83,127.83,0,0,1-30.15-12.34l.16-62a128.72,128.72,0,0,0,30,12.28c4.71,1.3,9.53,2.42,14.46,3.32a187.15,187.15,0,0,0,61.4.68,157.12,157.12,0,0,0,28.47-7.15A119.73,119.73,0,0,0,2582.67,2011Z"/><path class="cls-2" d="M2562.81,2020.11v62a158.65,158.65,0,0,1-28.47,7.2,186.62,186.62,0,0,1-61.4-.64v-62.06a187.15,187.15,0,0,0,61.4.68A157.12,157.12,0,0,0,2562.81,2020.11Z"/><path class="cls-2" d="M4482.27,881.12l-.17,62c-.05,16.06-10.6,32.09-31.69,44.34l.18-62C4471.67,913.21,4482.23,897.17,4482.27,881.12Z"/><polygon class="cls-4" points="4450.59 925.46 4450.41 987.5 2582.49 2073.02 2582.67 2010.98 4450.59 925.46"/><polygon class="cls-2" points="2428.5 2010.98 2428.33 2073.03 1028.92 1265.08 1029.1 1203.04 2428.5 2010.98"/><path class="cls-5" d="M4450.1,836.16c42.7,24.66,42.93,64.64.49,89.3L2582.67,2011c-42.44,24.66-111.46,24.66-154.17,0L1029.1,1203c-42.71-24.66-42.93-64.64-.49-89.3L2896.53,28.22C2939,3.56,3008,3.56,3050.69,28.21Z"/><path class="cls-4" d="M2973.52,16.07c28,0,54.3,6.26,74,17.64L4446.93,841.65c18.68,10.79,29,24.75,29,39.32s-10.11,28.3-28.53,39L2579.48,2005.49c-19.57,11.38-45.78,17.64-73.8,17.64s-54.3-6.26-74-17.64L1032.27,1197.54c-18.68-10.78-29-24.75-29-39.31s10.11-28.31,28.52-39L2899.71,33.71c19.58-11.38,45.79-17.64,73.81-17.64Zm0-6.35c-27.9,0-55.78,6.17-77,18.5L1028.61,1113.74c-42.44,24.66-42.22,64.64.49,89.3L2428.5,2011c21.36,12.33,49.28,18.49,77.18,18.49s55.77-6.16,77-18.49L4450.59,925.46c42.44-24.66,42.21-64.64-.49-89.3L3050.69,28.21c-21.35-12.32-49.28-18.49-77.17-18.49Z"/><path class="cls-6" d="M1068,1136.65,2932,60.47c17-9.8,42.65-10.86,57.35-2.37l1405,811.19c14.7,8.49,12.86,23.31-4.11,33.11l-1864,1076.18c-17,9.8-42.65,10.86-57.35,2.38l-1405-811.19C1049.2,1161.28,1051,1146.45,1068,1136.65Z"/><path class="cls-7" d="M2964.46,52.37v3c9.14,0,17.44,1.89,23.39,5.33l1405,811.19c5.42,3.13,8.4,7.3,8.4,11.75,0,5.64-4.56,11.51-12.52,16.1L2524.76,1976c-8.48,4.9-19.75,7.7-30.93,7.7-9.13,0-17.44-1.89-23.39-5.32l-1405-811.19c-5.42-3.13-8.41-7.31-8.41-11.75,0-5.64,4.57-11.51,12.53-16.11L2933.54,63.1c8.47-4.89,19.74-7.7,30.92-7.7v-3m0,0c-11.27,0-23.16,2.74-32.44,8.1L1068,1136.65c-17,9.8-18.82,24.63-4.12,33.12l1405,811.19c6.66,3.84,15.57,5.73,24.9,5.73,11.27,0,23.16-2.75,32.45-8.11l1864-1076.18c17-9.8,18.81-24.62,4.11-33.11L2989.37,58.1c-6.66-3.85-15.57-5.73-24.91-5.73Z"/><path class="cls-8" d="M1703.74,1638.53l-60.17-34.74c-4.55-2.63-8.23-9.67-8.23-15.74h0c0-6.07,3.68-8.85,8.23-6.23l60.17,34.74c4.55,2.63,8.24,9.68,8.24,15.74h0C1712,1638.37,1708.29,1641.15,1703.74,1638.53Z"/><polygon class="cls-3" points="2683.24 1944.63 2683.15 1944.68 2683.15 1944.57 2683.24 1944.63"/><path class="cls-2" d="M1840.31,758.6l190.84-110.18L2108,692.77,1917.14,803c-13.08,7.56-34.21,7.6-47.19.1l-29.81-17.2C1827.16,778.35,1827.23,766.15,1840.31,758.6Z"/><text class="cls-9" transform="matrix(0.87, -0.5, 0.87, 0.5, 1914.49, 776.95)">Mean </text><text class="cls-10" transform="matrix(0.87, -0.5, 0.87, 0.5, 2112.01, 664.4)">Median </text><text class="cls-10" transform="matrix(0.87, -0.5, 0.87, 0.5, 2340.12, 530.6)">Mode </text><polygon class="cls-11" points="2031.15 648.42 2245.67 524.56 2322.5 568.92 2107.98 692.77 2031.15 648.42"/><path class="cls-11" d="M2245.67,524.56l190.84-110.18c13.08-7.55,34.21-7.6,47.2-.1l29.8,17.21c13,7.5,12.91,19.7-.17,27.25L2322.5,568.92Z"/><polygon class="cls-2" points="3730.46 629.61 2052.64 1600.76 1348.05 1193.7 3036.19 222.55 3730.46 629.61"/><g class="cls-12"><polygon class="cls-6" points="3129.33 596.08 3129.25 782.78 2986.49 865.74 2986.58 679.04 3129.33 596.08"/><polygon class="cls-5" points="2986.58 679.04 2986.49 865.74 2842.8 782.78 2842.89 596.08 2986.58 679.04"/><polygon class="cls-4" points="3129.33 596.08 2986.58 679.04 2842.89 596.08 2985.64 513.12 3129.33 596.08"/></g><g class="cls-12"><polygon class="cls-6" points="2928.07 647.76 2927.99 898.62 2785.23 981.58 2785.32 730.72 2928.07 647.76"/><polygon class="cls-5" points="2785.32 730.72 2785.23 981.58 2641.54 898.62 2641.63 647.76 2785.32 730.72"/><polygon class="cls-4" points="2928.07 647.76 2785.32 730.72 2641.63 647.76 2784.39 564.8 2928.07 647.76"/></g><g class="cls-12"><polygon class="cls-6" points="2720.57 710.24 2720.48 1017.88 2577.72 1100.84 2577.81 793.2 2720.57 710.24"/><polygon class="cls-5" points="2577.81 793.2 2577.72 1100.84 2434.04 1017.88 2434.12 710.24 2577.81 793.2"/><polygon class="cls-4" points="2720.57 710.24 2577.81 793.2 2434.12 710.24 2576.88 627.28 2720.57 710.24"/></g><g class="cls-12"><polygon class="cls-6" points="2518.8 826.63 2518.72 1134.27 2375.96 1217.23 2376.05 909.59 2518.8 826.63"/><polygon class="cls-5" points="2376.05 909.59 2375.96 1217.23 2232.27 1134.27 2232.36 826.63 2376.05 909.59"/><polygon class="cls-4" points="2518.8 826.63 2376.05 909.59 2232.36 826.63 2375.11 743.67 2518.8 826.63"/></g><g class="cls-12"><polygon class="cls-6" points="2311.26 1029.86 2311.17 1253.43 2168.42 1336.39 2168.5 1112.82 2311.26 1029.86"/><polygon class="cls-5" points="2168.5 1112.82 2168.42 1336.39 2024.73 1253.43 2024.82 1029.86 2168.5 1112.82"/><polygon class="cls-4" points="2311.26 1029.86 2168.5 1112.82 2024.82 1029.86 2167.57 946.9 2311.26 1029.86"/></g><g class="cls-12"><polygon class="cls-6" points="2106.44 1217.64 2106.35 1372.63 1963.6 1455.59 1963.68 1300.61 2106.44 1217.64"/><polygon class="cls-5" points="1963.68 1300.61 1963.6 1455.59 1819.91 1372.63 1819.99 1217.65 1963.68 1300.61"/><polygon class="cls-4" points="2106.44 1217.64 1963.68 1300.61 1819.99 1217.65 1962.75 1134.69 2106.44 1217.64"/></g><text class="cls-13" transform="matrix(0.87, -0.5, 0.87, 0.5, 2043.59, 1498.74)"><tspan xml:space="preserve">5000    7500    10000    10000    8000    6000</tspan></text><g class="cls-12"><path class="cls-5" d="M3017.41,448l.18-65.25c0,9.6,6.31,19.21,19,26.53l-.19,65.25C3023.71,467.16,3017.38,457.55,3017.41,448Z"/><path class="cls-5" d="M3451.71,555.05l-.19,65.25c0,9.47-6.25,18.93-18.69,26.16l.19-65.25C3445.45,574,3451.68,564.52,3451.71,555.05Z"/><polygon class="cls-5" points="3433.02 581.21 3432.83 646.46 3429.05 648.66 3429.24 583.41 3433.02 581.21"/><polygon class="cls-5" points="3338.27 583.41 3338.08 648.66 3036.39 474.48 3036.58 409.23 3338.27 583.41"/><path class="cls-5" d="M3429.24,583.41l-.19,65.25c-25,14.55-65.77,14.55-91,0l.19-65.25C3363.47,598,3404.2,598,3429.24,583.41Z"/><path class="cls-4" d="M3432.72,528.52c25.2,14.55,25.33,38.14.3,52.69l-3.78,2.2c-25,14.55-65.77,14.55-91,0L3036.58,409.23c-25.2-14.55-25.33-38.14-.29-52.69l3.77-2.2c25-14.55,65.77-14.55,91,0Z"/></g><text class="cls-14" transform="matrix(0.87, 0.5, -0.87, 0.5, 3053.31, 390.23)">Calculate</text><path class="cls-2" d="M2995.11,1229.78l51.51,29.74L2240.5,1724.93,2189,1695.19c-39.17-22.62-38.94-59.41.51-82.19l663.25-382.93C2892.2,1207.29,2955.94,1207.16,2995.11,1229.78Z"/><path class="cls-2" d="M2924.4,1218c25.86,0,50.06,5.74,68.14,16.18l264.28,152.58c17.19,9.93,26.66,22.85,26.66,36.39s-9.65,26.81-27.18,36.93L2593.06,1843c-18.41,10.63-42.95,16.49-69.09,16.49-25.87,0-50.07-5.75-68.15-16.19l-264.27-152.58c-17.2-9.93-26.67-22.85-26.67-36.38,0-13.7,9.66-26.81,27.19-36.93l663.24-382.93c18.41-10.63,43-16.48,69.09-16.48m0-5.13c-25.88,0-51.83,5.73-71.65,17.17L2189.5,1613c-39.45,22.78-39.68,59.57-.51,82.19l264.27,152.58c19.49,11.25,45.07,16.87,70.71,16.87,25.88,0,51.83-5.73,71.65-17.17l663.24-382.93c39.46-22.77,39.69-59.57.52-82.19l-264.27-152.57c-19.5-11.26-45.07-16.88-70.71-16.88Z"/><text class="cls-15" transform="matrix(0.88, -0.51, 0.87, 0.5, 2252.39, 1691.73)">Data Set :</text><ellipse class="cls-6" cx="2908.67" cy="1246.06" rx="14.83" ry="8.56" transform="translate(-7.78 18.32) rotate(-0.36)"/><ellipse class="cls-6" cx="2879.43" cy="1262.94" rx="14.83" ry="8.56" transform="translate(-7.89 18.14) rotate(-0.36)"/><ellipse class="cls-6" cx="2850.19" cy="1279.82" rx="14.83" ry="8.56" transform="translate(-8 17.96) rotate(-0.36)"/><text class="cls-16" transform="matrix(0.88, -0.51, 0.87, 0.5, 2391.4, 1771.72)">5000, 7500, 10000, 10000,<tspan x="0" y="82.99">8000,6000</tspan></text><ellipse class="cls-2" cx="3201.75" cy="1101.67" rx="28.95" ry="16.71" transform="translate(-6.87 20.17) rotate(-0.36)"/><ellipse class="cls-5" cx="3201.75" cy="1101.67" rx="17.97" ry="10.37" transform="translate(-6.87 20.17) rotate(-0.36)"/><ellipse class="cls-2" cx="3327.51" cy="1174.39" rx="28.95" ry="16.71" transform="matrix(1, -0.01, 0.01, 1, -7.32, 20.96)"/><ellipse class="cls-5" cx="3327.51" cy="1174.39" rx="17.97" ry="10.37" transform="matrix(1, -0.01, 0.01, 1, -7.32, 20.96)"/><ellipse class="cls-2" cx="3470.36" cy="1254.81" rx="28.95" ry="16.71" transform="translate(-7.83 21.86) rotate(-0.36)"/><ellipse class="cls-5" cx="3470.36" cy="1254.81" rx="17.97" ry="10.37" transform="translate(-7.83 21.86) rotate(-0.36)"/><text class="cls-17" transform="matrix(0.87, -0.5, 0.87, 0.5, 3247.49, 1080.43)">Mean :<tspan x="0" y="154.45">Median :</tspan><tspan x="0" y="308.9">Mode :</tspan></text><text class="cls-18" transform="matrix(0.87, -0.5, 0.87, 0.5, 3485.55, 981.68)">7750</text><text class="cls-18" transform="matrix(0.87, -0.5, 0.87, 0.5, 3611.07, 1053.14)">10000</text><text class="cls-18" transform="matrix(0.87, -0.5, 0.87, 0.5, 3732.72, 1122.87)">10000</text><text class="cls-19" transform="matrix(0.88, -0.51, 0.87, 0.5, 3927.41, 1053.19)">(Appear Twice)</text><path class="cls-3" d="M121.8,1836.81l1231.85,715.87c52.15,30.31,137,30.31,189.46,0L1762.7,2425.9l30.21-17.43,264.88-152.94c52.49-30.3,52.77-79.43.62-109.74L826.56,1429.92c-52.15-30.3-137-30.3-189.46,0L122.42,1727.07C69.93,1757.37,69.66,1806.51,121.8,1836.81Z"/><path class="cls-20" d="M1744.09,2350l58.55-33.8c3.62-2.09,6.56-7.7,6.56-12.54h0c0-4.83-2.94-7-6.56-5l-58.55,33.81c-3.62,2.09-6.56,7.7-6.56,12.53h0C1737.53,2349.9,1740.47,2352.12,1744.09,2350Z"/><path class="cls-2" d="M100.49,1685.52l.17,59.38c0,19.26,12.71,38.5,38,53.2l-.17-59.38C113.2,1724,100.54,1704.78,100.49,1685.52Z"/><path class="cls-2" d="M2067.56,2153l-.17-59.38c.06,19.51-12.82,39.06-38.61,53.95l.17,59.38C2054.74,2192.05,2067.62,2172.5,2067.56,2153Z"/><polygon class="cls-2" points="138.5 1738.72 138.67 1798.1 1341.43 2497.07 1341.26 2437.69 138.5 1738.72"/><polygon class="cls-4" points="1526.25 2437.69 1526.42 2497.07 2028.95 2206.94 2028.78 2147.56 1526.25 2437.69"/><path class="cls-2" d="M1341.27,2437.69l.16,59.38a154.09,154.09,0,0,0,37,15.08c30.31,8.22,65,9.32,96.54,3.28,18.81-3.58,36.49-9.7,51.48-18.36l-.17-59.38c-15,8.63-32.57,14.74-51.31,18.34-31.53,6-66.21,5-96.54-3.22A153.65,153.65,0,0,1,1341.27,2437.69Z"/><path class="cls-5" d="M139.1,1631.57c-51.25,29.59-51.52,77.56-.6,107.15l1202.76,699c50.92,29.59,133.74,29.59,185,0l502.53-290.13c51.25-29.59,51.52-77.57.6-107.16l-1202.76-699c-50.92-29.59-133.74-29.59-185,0Z"/><path class="cls-4" d="M734.25,1324.47h0c34,0,65.9,7.63,89.74,21.48l1202.77,699c22.86,13.29,35.43,30.64,35.41,48.87s-12.81,35.85-36,49.24l-502.53,290.13c-24,13.86-56,21.5-90,21.5s-65.9-7.63-89.74-21.49l-1202.76-699c-22.87-13.28-35.44-30.64-35.42-48.86s12.82-35.86,36-49.25L644.24,1346c24-13.86,56-21.49,90-21.49Zm0-5.23c-33.48,0-67,7.4-92.62,22.19L139.1,1631.57c-51.25,29.59-51.52,77.56-.6,107.15l1202.76,699c25.46,14.79,58.9,22.19,92.37,22.19s67-7.39,92.62-22.19l502.53-290.13c51.25-29.59,51.52-77.57.6-107.16l-1202.76-699c-25.46-14.79-58.9-22.19-92.37-22.19Z"/><path class="cls-6" d="M167.85,1711.43,1371,2406.05c31,17.92,81.7,17.81,113-.24L1987,2115.38c31.26-18.05,31.44-47.3.41-65.22L784.26,1355.54c-31-17.91-81.7-17.81-113,.24l-503,290.43C137,1664.26,136.82,1693.52,167.85,1711.43Z"/><path class="cls-7" d="M728.16,1343.28c21.06,0,40.79,4.69,55.55,13.22l1203.12,694.62c14.58,8.41,22.6,19.58,22.6,31.43s-8.17,23.31-23,31.88l-503.05,290.43c-15,8.68-35,13.46-56.31,13.46-21,0-40.78-4.7-55.55-13.22L168.4,1710.48c-14.58-8.42-22.61-19.58-22.61-31.44s8.18-23.3,23-31.87l503-290.44c15-8.68,35-13.45,56.31-13.45m0-1.1c-20.55,0-41.15,4.53-56.86,13.6l-503,290.43c-31.26,18-31.44,47.31-.41,65.22L1371,2406.05c15.44,8.91,35.75,13.37,56.1,13.37,20.56,0,41.16-4.54,56.86-13.61L1987,2115.38c31.26-18.05,31.44-47.3.41-65.22L784.26,1355.54c-15.44-8.91-35.75-13.36-56.1-13.36Z"/><path class="cls-2" d="M1762.07,2341.43l65.41-37.77c5-2.85,9-10.51,9-17.11h0c0-6.59-4-9.62-9-6.76l-65.41,37.76c-5,2.86-9,10.52-9,17.11h0C1753.11,2341.25,1757.12,2344.28,1762.07,2341.43Z"/><polygon class="cls-2" points="290.4 1653.14 233.25 1686.13 225.98 1681.93 283.12 1648.94 290.4 1653.14"/><polygon class="cls-2" points="304.94 1661.54 247.8 1694.53 240.53 1690.33 297.67 1657.34 304.94 1661.54"/><polygon class="cls-2" points="319.49 1669.94 262.35 1702.93 255.07 1698.73 312.22 1665.74 319.49 1669.94"/><ellipse class="cls-2" cx="750.51" cy="1377.61" rx="8.11" ry="4.68" transform="translate(-8.65 4.75) rotate(-0.36)"/><ellipse class="cls-2" cx="766.09" cy="1386.61" rx="8.11" ry="4.68" transform="matrix(1, -0.01, 0.01, 1, -8.71, 4.85)"/><ellipse class="cls-2" cx="781.67" cy="1395.6" rx="8.11" ry="4.68" transform="translate(-8.77 4.95) rotate(-0.36)"/><text class="cls-21" transform="matrix(0.87, -0.5, 0.87, 0.5, 359.86, 1768.66)">My Daily Steps</text><path class="cls-2" d="M1088.05,1625.42,650.81,1877.86c-30.95,17.87-85,15.63-120.75-5h0c-35.73-20.64-39.61-51.85-8.66-69.72L958.63,1550.7c31-17.87,85-15.62,120.75,5h0C1115.12,1576.34,1119,1607.55,1088.05,1625.42Z"/><path class="cls-2" d="M1248,1717.7,810.8,1970.14c-30.95,17.86-85,15.62-120.75-5h0c-35.73-20.63-39.62-51.84-8.67-69.71L1118.62,1643c31-17.87,85-15.63,120.75,5h0C1275.1,1668.62,1279,1699.83,1248,1717.7Z"/><path class="cls-2" d="M1405.78,1807.72,968.54,2060.17c-30.95,17.86-85,15.62-120.75-5h0c-35.73-20.63-39.62-51.84-8.67-69.71L1276.36,1733c31-17.87,85-15.63,120.75,5h0C1432.84,1758.65,1436.72,1789.86,1405.78,1807.72Z"/><path class="cls-2" d="M1570.26,1904.49,1133,2156.93c-31,17.87-85,15.63-120.75-5h0c-35.73-20.63-39.62-51.85-8.67-69.71l437.24-252.44c31-17.87,85-15.63,120.75,5h0C1597.32,1855.41,1601.2,1886.62,1570.26,1904.49Z"/><path class="cls-2" d="M1741.47,1999l-437.23,252.45c-31,17.86-85,15.62-120.75-5h0c-35.74-20.63-39.62-51.84-8.67-69.71l437.24-252.44c31-17.87,85-15.63,120.75,5h0C1768.54,1949.94,1772.42,1981.15,1741.47,1999Z"/><path class="cls-2" d="M1894.72,2091.29l-437.24,252.44c-30.94,17.87-85,15.63-120.74-5h0c-35.74-20.64-39.62-51.85-8.67-69.72l437.24-252.44c31-17.86,85-15.62,120.74,5h0C1921.79,2042.21,1925.67,2073.42,1894.72,2091.29Z"/><text class="cls-22" transform="matrix(0.88, -0.51, 0.87, 0.5, 550.99, 1825.36)">Today</text><text class="cls-22" transform="matrix(0.88, -0.51, 0.87, 0.5, 711.6, 1920.83)">Yesterday</text><text class="cls-22" transform="matrix(0.88, -0.51, 0.87, 0.5, 872.2, 2016.29)">Friday</text><text class="cls-22" transform="matrix(0.88, -0.51, 0.87, 0.5, 1032.81, 2111.76)">Thursday</text><text class="cls-22" transform="matrix(0.88, -0.51, 0.87, 0.5, 1193.41, 2207.22)">Wednesday</text><text class="cls-22" transform="matrix(0.88, -0.51, 0.87, 0.5, 1354.02, 2302.68)">Tuesday</text><text class="cls-23" transform="matrix(0.87, -0.5, 0.87, 0.5, 831.31, 1743.78)">5000</text><text class="cls-24" transform="matrix(0.87, -0.5, 0.87, 0.5, 980.47, 1847.65)">7500</text><text class="cls-24" transform="matrix(0.87, -0.5, 0.87, 0.5, 1071.57, 1976.41)">10000</text><text class="cls-24" transform="matrix(0.87, -0.5, 0.87, 0.5, 1238.68, 2072.18)">10000</text><text class="cls-24" transform="matrix(0.87, -0.5, 0.87, 0.5, 1470, 2129.9)">8000</text><text class="cls-24" transform="matrix(0.87, -0.5, 0.87, 0.5, 1620.27, 2223.98)">6000</text><ellipse class="cls-3" cx="4078.64" cy="2196.63" rx="598.71" ry="243.32" transform="translate(-533.1 1758.04) rotate(-22.87)"/><path class="cls-25" d="M4204.52,1090s-38.22,9.91-42.47,55.21-11.32,144.4-11.32,144.4l-27.61-26.43-27.6,21.71,49.55,76.92s17,36.81,53.79,11.33,29.73-104.76,29.73-104.76Z"/><path class="cls-26" d="M3642.47,1969.47c7.46.64,13.73,6.34,17.15,13s4.49,14.26,5.51,21.68q4.32,31.48,8.65,63c1.2,8.74,2.31,18.08-1.57,26-4.22,8.62-13.32,13.53-21.87,17.89-5.45,2.78-11,5.6-17.06,6.59s-12.75-.12-17.17-4.36c-5.53-5.31-6.13-13.82-6.13-21.48a362.41,362.41,0,0,1,6.19-66.8c1.23-6.57,2.65-13.2,2.26-19.88s-2.87-13.54-8.11-17.69Z"/><path class="cls-26" d="M3863.36,2162.71c1.15-8.74,11.51-12.48,17.58-18.89,7.63-8.07,8.19-20.31,8.32-31.41l.66-59.7,43.27-21c.22,23.55.43,47.27-3.83,70.43s-13.3,46-29.44,63.16c-5.58,5.94-12.57,11.38-20.7,11.82S3862.29,2170.79,3863.36,2162.71Z"/><path class="cls-26" d="M3793.91,2205.87c-7.27,1-14.79,1.3-21.89-.62-10.38-2.81-19.08-10.14-25.53-18.74s-10.9-18.51-15.3-28.32l33.58-13.29a25.19,25.19,0,0,0,15.7,24.65c6.46,2.47,13.61,2.09,20.43,3.29s14.08,4.81,16,11.46c1.63,5.75-1.51,12-6.25,15.66S3799.82,2205,3793.91,2205.87Z"/><path class="cls-27" d="M3680.27,2337.65c3.38,2.88,8.44,4.27,15.39,2.78l13.6-8.44a22.94,22.94,0,0,0,9.13-10.87L3782,2163c37.43-20.46,70.84-43,85.63-75.06,16.38-17.67,31.82-30,59.32-41,29.89,23.58,74.32,36.33,120,19.9l6.15,36.59-7.42,10.37c-6.8,14.24-4.29,19.46,10.75,19.11a13.63,13.63,0,0,0,8-2.87l8.14-6.51a28.82,28.82,0,0,0,9.48-13.65,28.25,28.25,0,0,0,1.24-5.86c1.49-14.64-.2-33-2.58-52.07,1.64-10.27-18.86-26.26-40.21-42.54a52.68,52.68,0,0,1-20.8-36.44c-2.53-25.56-9.73-49.49-24.92-70.59l8-38.42c-.49-16.38-18.61-18-27.89-5l-18.22,34.25c-35.74,7.55-66.67,21.64-91.64,43.88-58.57,20.26-119,40.61-141.72,59a40,40,0,0,0-4.72,4.36l-35.39,1.19s-.85,11.42-1.84,25.92c-1.79,24.87-4.12,58.77-3.72,60.36.34,1.39,11.22,12.36,20.45,21.49a5,5,0,0,1,.59.55c6.71,6.6,12.47,12.11,12.47,12.11,4.81,24,5.55,50.79,3.17,79.68-2.53,30.48-15.36,63.93-23.65,98.38l-15.87,16.76C3669.34,2322.19,3673.27,2331.85,3680.27,2337.65Z"/><path class="cls-27" d="M3554.48,2104.54a21.15,21.15,0,0,0,3.13,6.4c7.49,10.48,24.72,16.24,37.23,13.06s23.43-10.57,35.14-15.94c20.75-9.53,46.81-16.13,68.21,1.34a5,5,0,0,1,.59.55,52.58,52.58,0,0,1,6,5.76l10.67-25.27,34-80.17c.89.15,1.84.25,2.78.4-10.87-1.84-20-7.69-28.74-14.59-9-7-17.57-15-27.35-20.66a72,72,0,0,0-58.23-5.7c-19,6.45-37.18,16.68-44.88,35.24-4.76,11.42-4.32,28.69-9.73,39.86-5.66,11.77-13.35,20.21-21.74,30.28C3555.13,2082.75,3551.5,2094.61,3554.48,2104.54Z"/><path class="cls-28" d="M3554.22,2093.21a5.45,5.45,0,0,1,4.13-4.91,7.14,7.14,0,0,1,2.94.23,18.32,18.32,0,0,1,11.95,9.79c1,2.06,1.52,4.63.28,6.56s-3.73,2.46-5.89,2a15.72,15.72,0,0,1-5.69-2.85,53.72,53.72,0,0,0-.49,11.19,42.07,42.07,0,0,1-1.74-12.81,18.84,18.84,0,0,1-3.21-2.9A8.94,8.94,0,0,1,3554.22,2093.21Z"/><path class="cls-29" d="M3680.27,2337.65c3.38,2.88,8.44,4.27,15.39,2.78l13.6-8.44a22.94,22.94,0,0,0,9.13-10.87L3782,2163c37.43-20.46,70.84-43,85.63-75.06,16.38-17.67,31.82-30,59.32-41,29.89,23.58,74.32,36.33,120,19.9l6.15,36.59-7.42,10.37c-3.41,9.73,5.79,8.06,11.58,2.48,9.93-9.1,2.49-30.2-2.87-59.37-60.66,14.8-98.93.25-121.12-35.39-26.46,20.16-52.22,36.24-76.25,42.2-24.13,45.07-56,74.75-98,83.79,4.32,40.16-18.52,100.08-46.56,163.81C3707.72,2325.74,3696.5,2334.13,3680.27,2337.65Z"/><path class="cls-29" d="M3554.48,2104.39a20.34,20.34,0,0,0,3.13,6.55c7.49,10.48,24.72,16.24,37.23,13.06s23.43-10.57,35.14-15.94c20.75-9.53,46.81-16.13,68.21,1.34a5,5,0,0,1,.59.55c6.71,6.6,12.47,12.11,12.47,12.11,4.81,24,5.55,50.79,3.17,79.68l13-67.52-12-43.78-2.92-10.82-31-52s-11.42-19.16-11.42-19.16c4.37,24.42-1,47.65-14.64,69.94C3630.88,2102.5,3586.5,2128.32,3554.48,2104.39Z"/><path class="cls-28" d="M3723.41,1996.08c21.34,31.43,2.75,57.38-17.13,67l12.83,9.1c31.38-9.1,37.12-54.71,18.2-74.25Z"/><path class="cls-30" d="M3700,1993.46c7.47.65,13.74,6.34,17.16,13s4.48,14.26,5.5,21.68q4.34,31.5,8.65,63c1.2,8.74,2.31,18.08-1.56,26-4.22,8.62-13.33,13.53-21.87,17.89-5.46,2.79-11,5.61-17.07,6.6s-12.75-.13-17.17-4.37c-5.52-5.3-6.12-13.82-6.13-21.48a363.36,363.36,0,0,1,6.19-66.8c1.24-6.57,2.65-13.2,2.26-19.87a27.13,27.13,0,0,0-4.28-13.56,10.57,10.57,0,0,1,.47-12.29C3677.64,1996.08,3686.56,1992.45,3700,1993.46Z"/><path d="M3736.11,2001.85l-2.89-1.57-5.75-.11c.27-13.49,287.51-411.34,325.1-436,11-7.24,19-13.11,24.83-17.39,16.62-12.22,20.56-15.12,37-5.82,7.09,4,13.79,17.38,19.92,39.71,2.87,10.48,2.5,17.21-1.13,20.56a7.38,7.38,0,0,1-7.78,1.37c-6-2.17-11.25-10.65-12.49-20.16-2.88-22.11-5.41-26.46-15-35.48l2.33-2.47c-4-.35-7.83,2.4-17.52,9.52-5.9,4.35-14,10.29-25.23,17.66C4014.24,1600,3745,1985.43,3736.11,2001.85Zm381.25-442.42c1.85,5.36,3.16,12.17,4.43,21.87.81,6.2,3.6,10.31,5.4,12,.13-1.63,0-4.74-1.56-10.26A150,150,0,0,0,4117.36,1559.43Z"/><path d="M4325.25,960.51c59.88-6.65,86.31,34.24,92.44,72,8.19,50.37-2.21,71.06-18.78,98.18-11.66,19.11-46.07,50.85-46.07,50.85-23.78-97.42,22.5-156.79,3.78-185.33-9.71-14.81-31.37-21.86-31.37-21.86Z"/><path class="cls-31" d="M4433.09,1817.87l16.48,20.27c11.51,3.38,20.7,12.63,28.51,25.35,6.34,12.19-1.81,38.13-16.47,48.31-19.78,40.24-22.25,105.84-69.7,98.06-38.65-6.34-10.39-30.13-4-57.67,5-21.35,11.93-47.62,12.83-59.87s-6.65-26.61-6.65-26.61l-17.15-20Z"/><path class="cls-31" d="M4235.41,2077.65l-5.84,38.16c2.4,9.39.11,21.5-4.62,35-6.82,10.31-16.09,15.48-26.61,18.06-34.95,28.05-61.09,41.22-87,37.54-21.16-6-27.46-15.26-23.76-26.61,9.45-14.44,34-30.87,60.36-49s26.13-34.21,26.13-34.21l14.15-29.27Z"/><path class="cls-2" d="M4279.13,1417.29l-85.5,20.59c-23.69,138.78,9.36,200.09,56,286.21,57.45,47.64,102.59,100.81,147.32,158.72,20.91,20,79.83-29.46,53.52-56.25-55.45-58.35-77.28-130-128.61-149L4351.36,1495Z"/><path class="cls-5" d="M4212.37,2119.09c11.4-.08,22-3.42,26.84-11,39.92-119.75,91.24-184.38,61.43-296.76,46.54-82.8,87.14-161.42,105.23-224.07,38.55-69.65,26.46-120.51-16.27-160-3.65-3.42-7.53-6.76-11.63-10l-184.31,20.61c19.24,56,42,104.62,83,115.12-36.27,73.6-51.1,143.85-64,228.1-3.64,23.87,3.27,48.05.54,84.7-6.09,81-17.64,134-43,226.13C4167.43,2108.29,4191.38,2119.16,4212.37,2119.09Z"/><path class="cls-2" d="M4211.68,2119c12.09,0,22.66-3.34,27.53-11,39.92-119.75,91.24-184.38,61.43-296.76,46.54-82.8,87.14-161.42,105.23-224.07,38.55-69.65,26.46-120.51-16.27-160L4340.9,1476c33.27,19.09,45.75,46.75,23.76,88.39-6.07,78.88-48.3,156.12-102.64,232.82C4290.37,1894.67,4272.22,2002.23,4211.68,2119Z"/><path class="cls-32" d="M4201.19,1326.81c6.54,38.48,4.79,75.58-7.53,111.09,4.72,24.33,18.78,42.12,51.17,47.14,69.8,11,126.68-12.09,153.36-49.27-25.92-25.24-25.77-57.86-10.72-94.74a211.05,211.05,0,0,0,23.42-66.45c5.33-29.2,5.63-60.45,2.21-93.22-34.29-32.85-56.58-64.24-115.08-90.46s-102.53-2.61-102.53-2.61c-22.36,24-29.35,51-17.11,81.66-1.9,54.22-27.83,77.63-27.6,111.24C4151.08,1308.26,4169.56,1325.29,4201.19,1326.81Z"/><path class="cls-31" d="M4193.66,1437.9c4.72,24.33,18.78,42.12,51.17,47.14,69.8,11,126.68-12.09,153.36-49.27-25.92-25.24-25.77-57.86-10.72-94.74a211.05,211.05,0,0,0,23.42-66.45h-40.52c-23.19,54.06-32.47,107-85.09,98.84-36.57-5.78-48.89-35.66-41.28-72.76-10,13.3-30,26.61-42.81,26.15C4207.73,1365.29,4206,1402.39,4193.66,1437.9Z"/><path class="cls-25" d="M4343.64,1128.24c-3.94,32.53-57.16,53-79.8,36.89-9.44-6.74-13.56-19.84-6.57-41.12l-1.15-25.7-1.07-23.68,69.07-7.6C4326.69,1090.19,4331.48,1108.44,4343.64,1128.24Z"/><path class="cls-33" d="M4263.84,1165.13c-9.44-6.74-13.56-19.84-6.57-41.12l-1.15-25.7,25.32-13,8.5,12.27S4297.21,1147.78,4263.84,1165.13Z"/><circle class="cls-34" cx="4306.08" cy="975.03" r="31.13"/><path class="cls-25" d="M4250.64,948.64c-59.27,3.91-84.34,55.08-69.64,103.65a235.61,235.61,0,0,0,14.61,40.35l-1.43,6.77a8.1,8.1,0,0,0,9.49,9.66c.3-.06.62-.15.93-.23,11.12,17.15,23.42,26.31,34.63,24.79,33.57-4.53,52.53-25.85,55.31-50.13l27.58-16.38C4340.28,993.55,4304.83,945.07,4250.64,948.64Z"/><path d="M4328.91,1002.22c6.26,25.09,2.52,49.85-3,72.74a14.9,14.9,0,0,1-21.73-6l-5.52-10.49a10,10,0,0,0-18.18,1l-2.38,6a21.12,21.12,0,0,1-21.18.81c-28.52-15.15-58.11-31.55-75.35-33.73a27.36,27.36,0,0,0-4.42-.24c-5.65-23.82.08-45.67,16.18-62,9.88-10,23.66-18,41.1-23.14C4291.35,934.94,4318.83,961.91,4328.91,1002.22Z"/><path class="cls-2" d="M4062.53,1177.5l26.52,67.69a8.63,8.63,0,0,0,10.28,5.17l28.1-7.64a8.6,8.6,0,0,0,5.78-11.4l-26.56-68.9a8.61,8.61,0,0,0-10.62-5.12l-28.07,8.84A8.61,8.61,0,0,0,4062.53,1177.5Z"/><path class="cls-25" d="M4074.76,1242.74l-7.16-35.32,8-33.07s6.65,0,4.62,10.44l-2.48,24.44,5.86,17.9.42-23.76,3.57-32.38s6.83-.46,6.24,7.67-.78,22.61-.78,22.61l2.89,21.28,5.26-20.45,9.17-14.7s5.83,3.68,1.48,12.19l-3.17,8.38-.16,14.72,7.62-30s6.1-3,5.15,6.36l-2.34,28.22s10.33,22.19,6,35.91L4098.5,1289a64.81,64.81,0,0,1-13.2-20.38Z"/><path class="cls-25" d="M4425.43,1212.92c-1.1-29.84-38.53-42.49-57.7-19.6-8.72,10.4-18.14,25.31-26.89,46.65-26.76,65.23-55.2,122.1-55.2,122.1L4161,1493.36l23.42,31.78,141.33-108.72S4428.21,1288,4425.43,1212.92Z"/><path class="cls-25" d="M4161,1493.36l-53.31,16.1s-12.54,10-6.9,20.07l-13.8,23.84s1.26,14.42,12.55,10c0,0,0,13.8,9.41,7.53,0,0,5,11.92,15.05,5.64,0,0,6.27,8.16,15.05,1.26s45.37-52.69,45.37-52.69Z"/><path class="cls-2" d="M996.75,1220.13s-.16,30.35,32.17,44.95l.18-62Z"/></svg>